<svg width="14" height="14" viewBox="0 0 16 16" fill="none"
  xmlns="http://www.w3.org/2000/svg" class="">
  <path fill-rule="evenodd" clip-rule="evenodd" d="M5 4.71472C4.44772 4.71472 4 5.16244 4 5.71472V8.71472C4 9.26701 3.55228 9.71472 3 9.71472C2.44772 9.71472 2 9.26701 2 8.71472V5.71472C2 4.05787 3.34315 2.71472 5 2.71472H10C10.5523 2.71472 11 3.16244 11 3.71472C11 4.26701 10.5523 4.71472 10 4.71472H5Z" fill="#1E69FF"></path>
  <path d="M8.28716 2.2888L9.00011 3.7147L8.28716 5.14061C8.11573 5.48345 8.18293 5.89752 8.45397 6.16857C8.76734 6.48194 9.26345 6.51719 9.61799 6.25129L11.9334 4.5147C12.4668 4.1147 12.4668 3.3147 11.9334 2.9147L9.61799 1.17812C9.26345 0.912212 8.76734 0.947469 8.45397 1.26084C8.18293 1.53188 8.11573 1.94595 8.28716 2.2888Z" fill="#1E69FF"></path>
  <path fill-rule="evenodd" clip-rule="evenodd" d="M11 11.2853C11.5523 11.2853 12 10.8376 12 10.2853V7.28528C12 6.73299 12.4477 6.28528 13 6.28528C13.5523 6.28528 14 6.73299 14 7.28528V10.2853C14 11.9421 12.6569 13.2853 11 13.2853H6C5.44772 13.2853 5 12.8376 5 12.2853C5 11.733 5.44772 11.2853 6 11.2853H11Z" fill="#1E69FF"></path>
  <path d="M7.71284 13.7112L6.99989 12.2853L7.71284 10.8594C7.88427 10.5165 7.81707 10.1025 7.54603 9.83143C7.23266 9.51806 6.73655 9.48281 6.38201 9.74871L4.06656 11.4853C3.53323 11.8853 3.53323 12.6853 4.06656 13.0853L6.38201 14.8219C6.73655 15.0878 7.23266 15.0525 7.54603 14.7392C7.81707 14.4681 7.88427 14.054 7.71284 13.7112Z" fill="#1E69FF"></path>
</svg>